<svg width="169" height="180" viewBox="0 0 169 180" fill="none" xmlns="http://www.w3.org/2000/svg">
<mask id="mask0" style="mask-type:alpha" maskUnits="userSpaceOnUse" x="157" y="61" width="12" height="57">
<path fill-rule="evenodd" clip-rule="evenodd" d="M157.857 61.8245H168.213V117.802H157.857V61.8245Z" fill="white"/>
</mask>
<g mask="url(#mask0)">
<path fill-rule="evenodd" clip-rule="evenodd" d="M167.737 73.1166C168.423 69.492 168.367 65.9003 167.574 62.4416C167.504 62.1343 167.296 61.9194 167.044 61.8494C166.906 61.8109 166.753 61.8158 166.6 61.8732C166.172 62.0356 165.913 62.5543 166.022 63.031C166.754 66.2188 166.804 69.5291 166.172 72.8695L157.876 116.766C157.781 117.265 158.049 117.722 158.488 117.793C158.919 117.861 159.347 117.512 159.44 117.013L167.737 73.1166Z" fill="white"/>
</g>
<path fill-rule="evenodd" clip-rule="evenodd" d="M26.1263 51.2019C26.3636 50.7567 26.2537 50.2051 25.8799 49.9692C25.8211 49.9321 25.7609 49.9048 25.6972 49.8873C25.3577 49.7928 24.9748 49.972 24.7753 50.3472L2.77427 91.5793C1.84537 93.316 1.10477 95.1703 0.570671 97.0911C0.351571 97.8835 0.165371 98.692 0.018371 99.4949C-0.074029 99.994 0.189871 100.448 0.635771 100.518C1.06767 100.583 1.49327 100.231 1.58497 99.7315C1.72147 98.9909 1.89227 98.2447 2.09527 97.5139C2.58737 95.7443 3.27057 94.0356 4.12457 92.4347L26.1263 51.2019Z" fill="white"/>
<path fill-rule="evenodd" clip-rule="evenodd" d="M159.914 71.8776C161.259 64.7635 157.81 58.035 151.867 56.1751L144.894 54.1627L147.342 33.1627L127.98 48.8714L57.4261 26.631C51.929 24.9111 45.8159 27.8497 42.6862 33.715L9.52926 95.8547C7.36486 99.9112 6.97286 104.757 8.47576 108.87C9.97936 112.984 13.1931 115.862 17.1103 116.602L134.362 138.745C137.639 139.364 141.103 138.425 143.966 136.142C146.829 133.858 148.849 130.423 149.569 126.616L159.914 71.8776Z" fill="white"/>
<path fill-rule="evenodd" clip-rule="evenodd" d="M14.1436 163.913L12.1346 129.506C12.1122 129.274 11.9092 129.101 11.6733 129.127C11.4416 129.15 11.2715 129.357 11.2946 129.589L13.3036 163.996C13.4667 165.656 14.0232 167.28 14.9136 168.69C14.9934 168.817 15.1299 168.887 15.2699 168.887C15.3476 168.887 15.4253 168.866 15.4953 168.822C15.692 168.698 15.7508 168.437 15.6262 168.24C14.7953 166.922 14.2962 165.466 14.1436 163.913Z" fill="#EF9500"/>
<path fill-rule="evenodd" clip-rule="evenodd" d="M95.7688 117.751C95.7457 117.519 95.5455 117.355 95.3054 117.375C95.0737 117.399 94.9057 117.607 94.9302 117.838C94.9659 118.183 94.9841 118.533 94.9841 118.881C94.9841 119.723 94.8777 120.561 94.667 121.374L89.249 156.287C89.1902 156.513 89.3253 156.743 89.5507 156.801C89.5864 156.811 89.6221 156.815 89.6571 156.815C89.8447 156.815 90.0155 156.689 90.0652 156.499L95.4839 121.586C95.7128 120.705 95.8283 119.794 95.8283 118.881C95.8283 118.504 95.8087 118.123 95.7688 117.751Z" fill="#EF9500"/>
<path fill-rule="evenodd" clip-rule="evenodd" d="M90.0807 114.649C88.7198 113.016 86.6548 112.14 84.5359 112.294L21.0837 116.91C19.3092 117.039 17.6635 117.879 16.5177 119.239C15.3717 120.599 14.8236 122.364 14.9979 124.135L17.5025 163.582C17.828 166.89 20.563 169.438 23.8851 169.529L25.0751 169.562L26.8181 179.138L34.528 169.823L76.6665 170.983C79.7388 171.068 82.4619 169.02 83.2333 166.044L91.3995 120.526C91.9329 118.469 91.4408 116.281 90.0807 114.649Z" fill="#EF9500"/>
<path fill-rule="evenodd" clip-rule="evenodd" d="M83.2324 82.7536C86.0191 69.9639 78.8294 65.5581 78.8294 65.5581L84.1074 34.4823C84.1074 34.4823 85.9505 29.3177 86.8017 27.8239C86.8094 27.8085 86.8185 27.7938 86.8269 27.7791C87.5934 26.3952 86.9326 24.6578 85.5375 24.2812L82.0613 23.3411L81.6693 23.2354L76.9373 21.9558C75.5422 21.5792 74.0953 22.7461 74.061 24.3281C74.0603 24.3449 74.0603 24.3617 74.0603 24.3792C74.0428 26.0984 73.0327 31.4884 73.0327 31.4884L61.9342 60.9906C61.9342 60.9906 53.5034 61.174 49.4672 73.6256C45.4303 86.0772 33.0907 134.204 33.0907 134.204C33.0907 134.204 32.4698 136.498 36.0321 138.2L48.6657 141.615L49.6688 141.887L62.3017 145.301C66.2357 145.626 66.8559 143.332 66.8559 143.332C66.8559 143.332 80.4457 95.5433 83.2324 82.7536Z" fill="#74D08D"/>
<path fill-rule="evenodd" clip-rule="evenodd" d="M80.3114 25.8423C80.3114 25.8423 70.8642 61.284 72.2558 66.0433C73.6474 70.8026 74.5623 73.2295 75.2301 77.062C75.8986 80.8952 58.3307 144.079 58.3307 144.079C58.3307 144.079 64.8575 147.287 66.856 143.332C68.8545 139.376 82.599 85.5026 82.599 85.5026C82.599 85.5026 86.379 71.9604 79.0262 65.8333L84.0067 34.138L87.4871 26.3757L80.3114 25.8423Z" fill="#007B69"/>
<path fill-rule="evenodd" clip-rule="evenodd" d="M41.5167 126.813C40.4772 126.532 39.8619 125.461 40.1426 124.421L54.1027 72.781C54.3841 71.7415 55.4551 71.1262 56.4946 71.4076C57.5348 71.6883 58.1494 72.7593 57.868 73.7995L43.9086 125.439C43.6279 126.479 42.5562 127.094 41.5167 126.813Z" fill="white"/>
<path fill-rule="evenodd" clip-rule="evenodd" d="M39.829 132.768C38.7895 132.487 38.1742 131.416 38.4549 130.376L38.5074 130.182C38.7888 129.142 39.8591 128.527 40.8986 128.809C41.9395 129.09 42.5541 130.16 42.2727 131.2L42.2202 131.394C41.9395 132.433 40.8685 133.049 39.829 132.768Z" fill="white"/>
<path fill-rule="evenodd" clip-rule="evenodd" d="M78.1499 103.624L71.4964 101.826C72.804 96.0811 69.3537 90.2796 63.6144 88.7276C57.8758 87.1765 51.9727 90.4497 50.2073 96.07L43.5538 94.2716L39.267 110.128L45.9205 111.926C44.6136 117.671 48.0639 123.473 53.8025 125.024C59.5418 126.576 65.4456 123.303 67.2103 117.682L73.8631 119.48L78.1499 103.624Z" fill="#EF9500"/>
<path fill-rule="evenodd" clip-rule="evenodd" d="M77.6851 104.35C77.6116 104.35 77.5367 104.34 77.4625 104.32L71.2752 102.647C70.8342 102.528 70.5661 102.082 70.6676 101.637C71.8835 96.2898 68.688 90.9803 63.3932 89.5495C58.0977 88.1187 52.6622 91.0937 51.0186 96.3255C50.8821 96.7609 50.425 97.0094 49.9854 96.8918L43.4488 95.1243C42.9945 95.0018 42.7264 94.5349 42.8489 94.0813C42.9714 93.6277 43.439 93.3589 43.8926 93.4814L49.6669 95.0424C51.8579 89.42 57.922 86.3071 63.837 87.9066C69.752 89.5054 73.4214 95.2496 72.4813 101.211L77.9063 102.677C78.3599 102.799 78.6287 103.267 78.5055 103.72C78.4033 104.1 78.0596 104.35 77.6851 104.35Z" fill="#223663"/>
<path fill-rule="evenodd" clip-rule="evenodd" d="M56.713 126.264C55.6784 126.264 54.6277 126.129 53.5805 125.846C47.6648 124.247 43.9954 118.502 44.9362 112.542L39.2781 111.013C38.8245 110.89 38.5564 110.423 38.6782 109.97C38.8014 109.515 39.2697 109.247 39.7226 109.37L46.1423 111.105C46.5833 111.225 46.8514 111.67 46.7506 112.116C45.5333 117.463 48.7288 122.772 54.0243 124.204C59.3198 125.634 64.7553 122.659 66.3982 117.428C66.5347 116.991 66.9918 116.742 67.4321 116.861L73.6194 118.534C74.0737 118.656 74.3418 119.124 74.2193 119.577C74.0961 120.031 73.6292 120.299 73.1756 120.176L67.7506 118.71C65.9467 123.336 61.5206 126.264 56.713 126.264Z" fill="#223663"/>
<path fill-rule="evenodd" clip-rule="evenodd" d="M63.0444 146.184C62.7875 146.184 62.5166 146.173 62.2317 146.149C62.1799 146.145 62.1288 146.137 62.0791 146.123L35.8109 139.022C35.7605 139.008 35.7122 138.99 35.666 138.968C31.5115 136.983 32.236 134.103 32.2689 133.981C32.2885 133.908 34.3024 126.362 35.1025 123.265C35.2201 122.81 35.6863 122.535 36.1392 122.654C36.5942 122.772 36.8672 123.236 36.7503 123.691C35.9481 126.794 33.9328 134.347 33.9125 134.423C33.902 134.474 33.5898 136.061 36.331 137.399L62.4466 144.459C65.5238 144.681 66.0306 143.125 66.0341 143.109C66.1181 142.811 74.2493 113.681 78.8378 96.8349C78.9617 96.382 79.4272 96.1139 79.8829 96.2378C80.3358 96.3617 80.6032 96.8293 80.48 97.2829C75.8901 114.134 67.7568 143.268 67.6756 143.561C67.6462 143.668 66.9189 146.184 63.0444 146.184Z" fill="#223663"/>
<path fill-rule="evenodd" clip-rule="evenodd" d="M37.4118 118.393C37.3404 118.393 37.2683 118.384 37.1955 118.365C36.7412 118.246 36.4689 117.781 36.5879 117.327C40.7417 101.442 46.2073 80.921 48.6573 73.3631C52.2595 62.2534 59.2392 60.4775 61.3245 60.1933L65.7184 48.5152C65.8836 48.0756 66.3736 47.853 66.8139 48.0189C67.2542 48.1841 67.4761 48.6748 67.3109 49.1144L62.7308 61.2902C62.6083 61.6157 62.3003 61.8341 61.9531 61.8411C61.6353 61.8516 54.0585 62.2198 50.2764 73.8881C47.839 81.4075 42.3825 101.895 38.2343 117.757C38.1342 118.14 37.7891 118.393 37.4118 118.393Z" fill="#223663"/>
<path fill-rule="evenodd" clip-rule="evenodd" d="M81.1303 92.2285C81.0603 92.2285 80.9889 92.2194 80.9175 92.2012C80.4625 92.0843 80.1888 91.6202 80.3057 91.1652C80.8888 88.9 81.3816 86.9281 81.7715 85.3034C82.0186 84.2737 82.23 83.3567 82.4008 82.5727C85.0125 70.588 78.6537 66.4517 78.3814 66.2816C78.0888 66.0989 77.9327 65.7559 77.9908 65.4157L83.2688 34.3399C83.2765 34.2909 83.2898 34.2433 83.3059 34.1964C83.3822 33.9829 85.1847 28.9436 86.0618 27.4029C86.3362 26.9087 86.3684 26.355 86.1696 25.8853C86.0023 25.4891 85.6915 25.2042 85.3156 25.1027L76.7147 22.7773C76.3395 22.6758 75.9265 22.7654 75.5828 23.023C75.174 23.3289 74.9234 23.8238 74.9115 24.346C74.8933 26.1611 73.9112 31.4223 73.8685 31.6456C73.8594 31.6939 73.8461 31.7415 73.8286 31.7877L70.064 41.7956C69.8988 42.2352 69.4081 42.4571 68.9685 42.2926C68.5282 42.1267 68.3063 41.636 68.4715 41.1964L72.2095 31.2592C72.3285 30.6152 73.1937 25.8909 73.2098 24.3705L73.2112 24.3061C73.2336 23.2673 73.7383 22.2775 74.5629 21.6601C75.3287 21.0868 76.2751 20.8957 77.1592 21.1344L85.7594 23.4598C86.6435 23.6992 87.3645 24.3411 87.7369 25.2217C88.1387 26.1702 88.0757 27.2804 87.5703 28.1918L87.5367 28.2513C86.7877 29.5666 85.1553 34.083 84.9341 34.699L79.7569 65.1763C81.4159 66.4727 86.5504 71.5232 84.0633 82.9346C83.8904 83.7291 83.6762 84.6573 83.4256 85.701C83.0343 87.3341 82.5394 89.3151 81.9542 91.5894C81.8548 91.9737 81.5097 92.2285 81.1303 92.2285Z" fill="#223663"/>
<path fill-rule="evenodd" clip-rule="evenodd" d="M86.69 28.1337L73.6742 24.6148C72.3393 24.2543 71.5497 22.8795 71.9109 21.5446C72.2714 20.2097 73.6462 19.4201 74.9811 19.7806L87.9969 23.2995C89.3311 23.66 90.1214 25.0348 89.7609 26.3697C89.3997 27.7046 88.0249 28.4942 86.69 28.1337Z" fill="#223663"/>
<path fill-rule="evenodd" clip-rule="evenodd" d="M84.108 35.3333C84.0345 35.3333 83.9596 35.3235 83.8861 35.3039L72.81 32.31C72.3571 32.1875 72.0883 31.7199 72.2108 31.2663C72.334 30.8127 72.8016 30.5453 73.2545 30.6671L84.3292 33.661C84.7835 33.7835 85.0516 34.2511 84.9291 34.7047C84.8262 35.0841 84.4832 35.3333 84.108 35.3333Z" fill="#223663"/>
<path fill-rule="evenodd" clip-rule="evenodd" d="M134.595 114.534L126.615 90.1031C126.615 90.1031 132.872 83.5259 138.469 99.0918C143.653 113.512 134.595 114.534 134.595 114.534ZM97.2023 137.087C97.4473 137.918 98.0213 138.614 98.7836 138.988C104.561 141.815 112.429 140.437 121.018 137.436C133.16 133.192 135.555 128.833 136.884 126.882C137.415 126.103 137.569 125.111 137.31 124.178L136.265 120.418C136.265 120.418 140.549 119.672 144.439 114.35C148.328 109.03 142.135 91.2392 137.417 85.5937C132.699 79.9482 123.558 84.6242 123.558 84.6242L119.058 71.9444C101.963 68.3408 80.6865 84.4408 80.6865 84.4408L97.2023 137.087Z" fill="white"/>
<path fill-rule="evenodd" clip-rule="evenodd" d="M118.083 79.0112C104.3 76.2882 86.9999 89.1402 86.9999 89.1402L99.9716 130.56C100.163 131.214 100.623 131.76 101.236 132.048C105.883 134.239 112.248 133.097 119.207 130.668C129.046 127.235 130.172 124.057 131.259 122.509C131.693 121.89 131.825 121.106 131.623 120.373L118.083 79.0112Z" fill="#F6B004"/>
<path fill-rule="evenodd" clip-rule="evenodd" d="M125.082 101.186C124.747 101.186 124.437 100.973 124.327 100.639L117.476 79.7065C105.491 77.6576 90.7162 87.4982 87.9351 89.4484L91.0375 98.9943C91.1733 99.4122 90.9451 99.8595 90.5279 99.996C90.11 100.13 89.662 99.9029 89.5269 99.4857L86.2446 89.3861C86.1382 89.0613 86.2516 88.7057 86.526 88.5027C86.7052 88.3697 90.9829 85.2099 97.0323 82.3371C105.215 78.4507 112.35 77.0682 118.237 78.2316C118.519 78.2876 118.749 78.4913 118.839 78.7643L125.837 100.144C125.973 100.561 125.746 101.01 125.329 101.146C125.246 101.173 125.163 101.186 125.082 101.186ZM131.258 123.303C131.101 123.303 130.942 123.256 130.804 123.16C130.444 122.907 130.357 122.412 130.609 122.054C130.907 121.628 130.998 121.093 130.857 120.584L126.871 108.411C126.735 107.995 126.962 107.546 127.379 107.41C127.798 107.272 128.245 107.501 128.381 107.917L132.377 120.126C132.655 121.128 132.481 122.15 131.91 122.965C131.755 123.186 131.509 123.303 131.258 123.303ZM107.031 134.007C104.672 134.007 102.648 133.592 100.897 132.767C100.081 132.382 99.4662 131.66 99.2093 130.784L91.0683 104.582C90.9388 104.162 91.1726 103.717 91.5912 103.587C92.0105 103.458 92.455 103.691 92.5859 104.11L100.73 130.325C100.863 130.776 101.17 131.14 101.575 131.33C105.442 133.154 110.963 132.704 118.946 129.918C121.786 128.928 124.133 127.869 125.923 126.772C126.296 126.541 126.786 126.66 127.015 127.033C127.245 127.407 127.127 127.896 126.754 128.125C124.866 129.282 122.416 130.39 119.469 131.418C114.513 133.148 110.426 134.007 107.031 134.007Z" fill="#223663"/>
<path fill-rule="evenodd" clip-rule="evenodd" d="M106.505 128.316C106.024 128.316 105.576 128.006 105.424 127.521L94.3176 92.1054C94.13 91.5076 94.4625 90.872 95.0596 90.6844C95.6567 90.4975 96.293 90.8293 96.4813 91.4271L107.588 126.843C107.774 127.44 107.443 128.076 106.845 128.264C106.732 128.3 106.617 128.316 106.505 128.316Z" fill="#EF9500"/>
<path fill-rule="evenodd" clip-rule="evenodd" d="M115.124 125.458C114.642 125.458 114.195 125.149 114.043 124.664L102.936 89.248C102.749 88.6502 103.081 88.0146 103.678 87.827C104.275 87.6394 104.912 87.9719 105.1 88.5697L116.206 123.986C116.393 124.583 116.061 125.219 115.464 125.407C115.351 125.442 115.236 125.458 115.124 125.458Z" fill="#EF9500"/>
<path fill-rule="evenodd" clip-rule="evenodd" d="M123.742 122.602C123.261 122.602 122.813 122.291 122.661 121.806L111.554 86.3906C111.368 85.7935 111.699 85.1572 112.297 84.9696C112.894 84.782 113.531 85.1145 113.718 85.7123L124.824 121.129C125.011 121.725 124.679 122.361 124.082 122.549C123.969 122.585 123.855 122.602 123.742 122.602Z" fill="#EF9500"/>
<path fill-rule="evenodd" clip-rule="evenodd" d="M127.547 90.3603L135.134 113.587C135.92 113.343 137.272 112.722 138.211 111.192C139.76 108.675 139.587 104.585 137.71 99.3658C135.06 91.9955 132.39 89.9921 130.616 89.6085C129.207 89.3054 128.087 89.9508 127.547 90.3603ZM134.594 115.341C134.249 115.341 133.938 115.12 133.829 114.785L125.849 90.3533C125.756 90.0719 125.826 89.7625 126.031 89.5476C126.113 89.4608 128.087 87.4266 130.929 88.0272C134.1 88.695 136.893 92.3266 139.228 98.8198C141.312 104.621 141.426 109.078 139.565 112.07C137.768 114.957 134.81 115.322 134.685 115.336C134.654 115.339 134.624 115.341 134.594 115.341ZM81.6297 84.7568L97.9719 136.846C97.9733 136.851 97.9747 136.854 97.9761 136.859C98.1581 137.479 98.5816 137.99 99.1381 138.263C103.99 140.638 110.857 140.133 120.751 136.676C132.007 132.741 134.702 128.701 135.996 126.76L136.218 126.429C136.615 125.845 136.73 125.103 136.534 124.396L135.488 120.635C135.428 120.415 135.462 120.18 135.583 119.988C135.705 119.795 135.903 119.664 136.127 119.624C136.163 119.617 140.162 118.835 143.788 113.875C145.34 111.751 145.188 106.682 143.38 100.314C141.779 94.6716 139.072 88.8308 136.798 86.1106C132.549 81.0258 124.814 85.0305 124.736 85.0711C124.529 85.181 124.285 85.195 124.067 85.1103C123.849 85.0249 123.678 84.8492 123.6 84.6287L119.252 72.3794C104.121 69.5206 84.8504 82.4902 81.6297 84.7568ZM106.182 141.334C103.194 141.334 100.637 140.791 98.429 139.711C97.47 139.242 96.7427 138.371 96.4312 137.322L79.9175 84.6826C79.8146 84.3543 79.9308 83.998 80.2066 83.7936C80.2619 83.7523 85.8773 79.6132 93.5157 75.9809C103.84 71.0704 112.758 69.3582 120.025 70.8905C120.299 70.9479 120.525 71.1446 120.618 71.4092L124.825 83.2623C127.172 82.2816 133.88 80.1046 138.035 85.0774C142.834 90.8195 149.381 108.955 145.09 114.827C142.054 118.98 138.776 120.48 137.258 120.982L138.087 123.963C138.411 125.129 138.216 126.358 137.55 127.336L137.337 127.653C135.946 129.741 133.049 134.084 121.283 138.197C115.286 140.293 110.321 141.334 106.182 141.334Z" fill="#223663"/>
<path fill-rule="evenodd" clip-rule="evenodd" d="M105.326 123.416C104.303 123.755 103.2 123.202 102.861 122.179L92.8556 91.2332C92.5161 90.2112 93.0705 89.1073 94.0932 88.7685C95.1152 88.4297 96.2191 88.9841 96.5579 90.0061L106.564 120.952C106.902 121.974 106.348 123.078 105.326 123.416Z" fill="white"/>
<path fill-rule="evenodd" clip-rule="evenodd" d="M107.202 129.315C106.18 129.654 105.076 129.1 104.737 128.078L104.674 127.887C104.335 126.865 104.888 125.761 105.911 125.422C106.934 125.083 108.037 125.637 108.377 126.659L108.44 126.851C108.778 127.873 108.225 128.976 107.202 129.315Z" fill="white"/>
<path fill-rule="evenodd" clip-rule="evenodd" d="M111.61 63.4943C111.536 63.5188 111.467 63.5517 111.393 63.5776C107.394 58.9807 100.887 56.9661 94.7327 58.9828C87.368 61.3957 83.0168 68.759 84.1501 76.1741C83.2492 76.158 82.3315 76.2812 81.4264 76.5773C77.0864 77.9997 74.7204 82.6715 76.1421 87.0122C77.5645 91.3522 82.2363 93.7182 86.5763 92.2965C87.4317 92.0158 88.2059 91.6063 88.894 91.1009C90.3045 91.5419 91.8431 91.6077 93.3628 91.2248L96.4715 100.713C97.1428 102.763 99.3492 103.881 101.4 103.209C103.45 102.537 104.567 100.331 103.896 98.2808L100.984 89.3936C102.144 89.2893 103.309 89.0583 104.463 88.6796C107.428 87.708 109.903 85.9307 111.731 83.6732C113.772 84.3179 116.023 84.362 118.213 83.6445C123.777 81.821 126.81 75.8318 124.986 70.2682C123.163 64.7039 117.175 61.6715 111.61 63.4943Z" fill="white"/>
<path fill-rule="evenodd" clip-rule="evenodd" d="M104.799 113.716L104.377 113.854C102.444 114.488 100.362 113.434 99.7289 111.5C99.0961 109.567 100.149 107.486 102.083 106.852L102.505 106.713C104.439 106.081 106.52 107.134 107.153 109.068C107.787 111.001 106.733 113.083 104.799 113.716Z" fill="white"/>
<path fill-rule="evenodd" clip-rule="evenodd" d="M124.987 71.0744C124.647 71.0744 124.332 70.8588 124.22 70.5193C122.539 65.3862 116.994 62.5785 111.861 64.2606C111.84 64.2669 111.819 64.2767 111.798 64.2851C111.752 64.304 111.706 64.3222 111.659 64.339C111.347 64.4468 111.002 64.3558 110.785 64.1066C108.633 61.6335 105.672 59.9213 102.448 59.2864C102.012 59.2003 101.727 58.7768 101.814 58.34C101.9 57.9025 102.322 57.6197 102.761 57.7044C106.154 58.3729 109.285 60.1187 111.635 62.6422C117.535 60.8719 123.824 64.1318 125.753 70.0174C125.891 70.4402 125.66 70.8952 125.238 71.0338C125.154 71.0611 125.07 71.0744 124.987 71.0744Z" fill="#223663"/>
<path fill-rule="evenodd" clip-rule="evenodd" d="M100.187 104.209C98.2037 104.209 96.355 102.947 95.7054 100.964L92.8214 92.1604C91.5614 92.3676 90.2748 92.3081 89.0407 91.9819C88.3519 92.4432 87.6085 92.8058 86.8273 93.062C83.958 94.0021 80.8185 93.4568 78.4301 91.6032C78.0787 91.3302 78.0143 90.8241 78.288 90.472C78.5596 90.1213 79.0664 90.0562 79.4185 90.3299C81.3834 91.8545 83.965 92.3032 86.3254 91.5304C87.0709 91.2861 87.7744 90.9235 88.4177 90.4517C88.6235 90.2998 88.8902 90.2557 89.1345 90.332C90.44 90.7401 91.8337 90.7786 93.1658 90.4433C93.576 90.339 93.996 90.5721 94.129 90.9739L97.237 100.462C97.7697 102.086 99.5232 102.975 101.149 102.443C102.773 101.911 103.662 100.156 103.129 98.5318L100.218 89.6446C100.141 89.4108 100.175 89.156 100.311 88.9502C100.446 88.7451 100.667 88.6128 100.911 88.5911C102.04 88.4889 103.15 88.2614 104.212 87.9142C106.926 87.0245 109.309 85.3823 111.104 83.1661C111.313 82.9078 111.656 82.8042 111.973 82.9043C113.941 83.5252 116.012 83.5168 117.962 82.8784C121.777 81.6282 124.483 78.096 124.697 74.0885C124.72 73.6433 125.1 73.3024 125.544 73.3262C125.989 73.35 126.33 73.7301 126.306 74.1739C126.057 78.8408 122.906 82.9547 118.463 84.41C116.364 85.0981 114.145 85.1597 112.011 84.5934C110.065 86.8432 107.552 88.5155 104.714 89.4458C103.851 89.7279 102.962 89.9393 102.056 90.0758L104.662 98.0299C105.47 100.498 104.119 103.165 101.651 103.975C101.165 104.134 100.671 104.209 100.187 104.209Z" fill="#223663"/>
<path fill-rule="evenodd" clip-rule="evenodd" d="M76.1422 87.8183C75.8034 87.8183 75.4877 87.6027 75.3764 87.2632C73.8182 82.5074 76.4194 77.3701 81.1752 75.8119C81.8423 75.5935 82.5339 75.4549 83.2416 75.3968C82.4933 67.7661 87.1049 60.6338 94.4808 58.2167C94.905 58.0767 95.3593 58.3091 95.4979 58.7319C95.6372 59.1547 95.4062 59.6104 94.9834 59.749C88.0702 62.0142 83.8492 68.8707 84.9468 76.0527C84.9832 76.2872 84.9132 76.5266 84.7571 76.7051C84.6003 76.8836 84.3679 76.9907 84.1355 76.9802C83.2871 76.9648 82.4597 77.0866 81.6778 77.3435C77.7662 78.6252 75.627 82.8497 76.9087 86.7613C77.0473 87.1841 76.8163 87.6391 76.3935 87.7777C76.3102 87.805 76.2255 87.8183 76.1422 87.8183Z" fill="#223663"/>
<path fill-rule="evenodd" clip-rule="evenodd" d="M103.651 107.336C103.353 107.336 103.053 107.382 102.756 107.48L102.334 107.618C101.603 107.858 101.01 108.367 100.662 109.053C100.315 109.739 100.255 110.518 100.495 111.249C100.734 111.98 101.244 112.573 101.93 112.922C102.615 113.268 103.396 113.328 104.127 113.088L104.548 112.95C106.057 112.455 106.881 110.826 106.387 109.319C105.99 108.108 104.861 107.336 103.651 107.336ZM103.226 114.846C102.53 114.846 101.84 114.682 101.202 114.359C100.132 113.818 99.3365 112.891 98.9634 111.751C98.5896 110.612 98.682 109.394 99.2245 108.325C99.7663 107.254 100.692 106.459 101.832 106.086L102.254 105.948C104.605 105.178 107.148 106.464 107.919 108.817C108.69 111.169 107.403 113.711 105.05 114.482L104.628 114.62C104.168 114.771 103.695 114.846 103.226 114.846Z" fill="#223663"/>
<path fill-rule="evenodd" clip-rule="evenodd" d="M140.686 32.4017C140.27 32.4017 139.932 32.7398 139.932 33.1556C139.932 33.5714 140.27 33.9102 140.686 33.9102C141.101 33.9102 141.44 33.5714 141.44 33.1556C141.44 32.7398 141.101 32.4017 140.686 32.4017ZM140.686 35.0512C139.641 35.0512 138.791 34.2007 138.791 33.1556C138.791 32.1105 139.641 31.2607 140.686 31.2607C141.731 31.2607 142.581 32.1105 142.581 33.1556C142.581 34.2007 141.731 35.0512 140.686 35.0512Z" fill="#223663"/>
<path fill-rule="evenodd" clip-rule="evenodd" d="M149.501 73.4058C149.186 73.4058 148.931 73.1503 148.931 72.8353V67.803C148.931 67.488 149.186 67.2325 149.501 67.2325C149.816 67.2325 150.071 67.488 150.071 67.803V72.8353C150.071 73.1503 149.816 73.4058 149.501 73.4058Z" fill="#223663"/>
<path fill-rule="evenodd" clip-rule="evenodd" d="M152.017 70.8894H146.985C146.669 70.8894 146.414 70.6339 146.414 70.3189C146.414 70.0039 146.669 69.7484 146.985 69.7484H152.017C152.332 69.7484 152.587 70.0039 152.587 70.3189C152.587 70.6339 152.332 70.8894 152.017 70.8894Z" fill="#223663"/>
<path fill-rule="evenodd" clip-rule="evenodd" d="M33.2931 80.6498C32.9781 80.6498 32.7233 80.3943 32.7233 80.0793V75.0463C32.7233 74.7313 32.9781 74.4758 33.2931 74.4758C33.6081 74.4758 33.8636 74.7313 33.8636 75.0463V80.0793C33.8636 80.3943 33.6081 80.6498 33.2931 80.6498Z" fill="#223663"/>
<path fill-rule="evenodd" clip-rule="evenodd" d="M35.8095 78.1332H30.7772C30.4615 78.1332 30.2067 77.8777 30.2067 77.5627C30.2067 77.2477 30.4615 76.9922 30.7772 76.9922H35.8095C36.1245 76.9922 36.38 77.2477 36.38 77.5627C36.38 77.8777 36.1245 78.1332 35.8095 78.1332Z" fill="#223663"/>
<path fill-rule="evenodd" clip-rule="evenodd" d="M30.4556 24.4632C30.0398 24.4632 29.7017 24.8013 29.7017 25.2171C29.7017 25.6329 30.0398 25.9717 30.4556 25.9717C30.8714 25.9717 31.2095 25.6329 31.2095 25.2171C31.2095 24.8013 30.8714 24.4632 30.4556 24.4632ZM30.4556 27.1127C29.4105 27.1127 28.5607 26.2622 28.5607 25.2171C28.5607 24.172 29.4105 23.3222 30.4556 23.3222C31.5007 23.3222 32.3512 24.172 32.3512 25.2171C32.3512 26.2622 31.5007 27.1127 30.4556 27.1127Z" fill="#223663"/>
<path fill-rule="evenodd" clip-rule="evenodd" d="M110.443 42.4742C110.128 42.4742 109.872 42.2187 109.872 41.9037V36.8714C109.872 36.5564 110.128 36.3009 110.443 36.3009C110.758 36.3009 111.013 36.5564 111.013 36.8714V41.9037C111.013 42.2187 110.758 42.4742 110.443 42.4742Z" fill="#223663"/>
<path fill-rule="evenodd" clip-rule="evenodd" d="M112.958 39.9578H107.927C107.611 39.9578 107.356 39.7023 107.356 39.3873C107.356 39.0723 107.611 38.8168 107.927 38.8168H112.958C113.273 38.8168 113.529 39.0723 113.529 39.3873C113.529 39.7023 113.273 39.9578 112.958 39.9578Z" fill="#223663"/>
<path fill-rule="evenodd" clip-rule="evenodd" d="M52.2519 49.0937C51.8354 49.0937 51.4973 49.4318 51.4973 49.8476C51.4973 50.2634 51.8354 50.6022 52.2519 50.6022C52.6677 50.6022 53.0058 50.2634 53.0058 49.8476C53.0058 49.4318 52.6677 49.0937 52.2519 49.0937ZM52.2519 51.7432C51.2068 51.7432 50.3563 50.8927 50.3563 49.8476C50.3563 48.8025 51.2068 47.9527 52.2519 47.9527C53.2963 47.9527 54.1468 48.8025 54.1468 49.8476C54.1468 50.8927 53.2963 51.7432 52.2519 51.7432Z" fill="#223663"/>
<path fill-rule="evenodd" clip-rule="evenodd" d="M62.8913 10.4174C62.5763 10.4174 62.3208 10.1619 62.3208 9.84691V4.81461C62.3208 4.49891 62.5763 4.24411 62.8913 4.24411C63.2063 4.24411 63.4611 4.49891 63.4611 4.81461V9.84691C63.4611 10.1619 63.2063 10.4174 62.8913 10.4174Z" fill="#223663"/>
<path fill-rule="evenodd" clip-rule="evenodd" d="M65.4076 7.90104H60.3753C60.0596 7.90104 59.8048 7.64554 59.8048 7.33054C59.8048 7.01554 60.0596 6.76004 60.3753 6.76004H65.4076C65.7226 6.76004 65.9781 7.01554 65.9781 7.33054C65.9781 7.64554 65.7226 7.90104 65.4076 7.90104Z" fill="#223663"/>
<path fill-rule="evenodd" clip-rule="evenodd" d="M107.415 1.14134C106.999 1.14134 106.661 1.47944 106.661 1.89524C106.661 2.31104 106.999 2.64984 107.415 2.64984C107.832 2.64984 108.17 2.31104 108.17 1.89524C108.17 1.47944 107.832 1.14134 107.415 1.14134ZM107.415 3.79084C106.37 3.79084 105.52 2.94034 105.52 1.89524C105.52 0.850136 106.37 0.000335693 107.415 0.000335693C108.46 0.000335693 109.311 0.850136 109.311 1.89524C109.311 2.94034 108.46 3.79084 107.415 3.79084Z" fill="#223663"/>
<path fill-rule="evenodd" clip-rule="evenodd" d="M99.348 146.772H101.628C103.292 146.772 104.66 147.247 105.732 148.198C106.986 149.309 107.614 150.716 107.614 152.418C107.614 153.253 107.432 154.053 107.066 154.822C106.437 156.149 105.453 157.088 104.116 157.64C103.391 157.939 102.422 158.088 101.205 158.088H99.6224C98.865 158.088 98.3372 157.989 98.0383 157.79C97.6512 157.53 97.4027 157.204 97.2921 156.811C97.2263 156.574 97.1927 156.149 97.1927 155.535V149.317C97.1927 148.781 97.2011 148.452 97.2179 148.331C97.262 147.982 97.3887 147.687 97.5987 147.443C97.9802 146.995 98.5633 146.772 99.348 146.772Z" fill="black"/>
<path fill-rule="evenodd" clip-rule="evenodd" d="M116.195 153.728L117.073 155.137C117.317 155.529 117.438 155.933 117.438 156.347C117.438 156.872 117.257 157.307 116.895 157.653C116.533 157.999 116.09 158.171 115.565 158.171C114.89 158.171 114.379 157.884 114.031 157.309L112.473 154.756V156.289C112.473 156.815 112.3 157.259 111.954 157.624C111.608 157.989 111.173 158.171 110.648 158.171C110.007 158.171 109.521 157.942 109.189 157.483C108.89 157.08 108.742 156.549 108.742 155.891V148.919C108.742 147.488 109.512 146.772 111.054 146.772H113.425C114.204 146.772 114.928 146.997 115.597 147.447C116.267 147.898 116.755 148.483 117.065 149.201C117.297 149.743 117.413 150.287 117.413 150.834C117.413 151.857 117.007 152.821 116.195 153.728Z" fill="black"/>
<path fill-rule="evenodd" clip-rule="evenodd" d="M122.437 149.002V156.024C122.437 156.632 122.28 157.132 121.965 157.525C121.628 157.956 121.16 158.171 120.563 158.171C120.016 158.171 119.555 157.97 119.179 157.566C118.864 157.229 118.707 156.715 118.707 156.024V149.002C118.707 148.217 118.864 147.648 119.179 147.295C119.538 146.891 120 146.689 120.563 146.689C121.127 146.689 121.589 146.888 121.948 147.286C122.275 147.65 122.437 148.223 122.437 149.002Z" fill="black"/>
<path fill-rule="evenodd" clip-rule="evenodd" d="M130.338 151.075V148.969C130.338 148.322 130.452 147.83 130.678 147.493C131.039 146.957 131.554 146.688 132.224 146.688C132.801 146.688 133.274 146.913 133.645 147.36C133.939 147.714 134.086 148.209 134.086 148.844V155.784C134.086 156.558 133.949 157.118 133.679 157.467C133.315 157.937 132.831 158.171 132.228 158.171C131.626 158.171 131.128 157.92 130.736 157.417L127.759 153.62V155.999C127.759 156.657 127.624 157.155 127.353 157.492C126.989 157.944 126.511 158.171 125.92 158.171C125.289 158.171 124.791 157.928 124.427 157.442C124.162 157.088 124.029 156.558 124.029 155.85V148.695C124.029 148.093 124.204 147.608 124.555 147.24C124.905 146.873 125.381 146.688 125.983 146.688C126.502 146.688 126.963 146.935 127.366 147.427L130.338 151.075Z" fill="black"/>
<path fill-rule="evenodd" clip-rule="evenodd" d="M139.4 150.602L141.505 147.552C141.903 146.976 142.418 146.689 143.048 146.689C143.561 146.689 144.006 146.871 144.382 147.236C144.758 147.601 144.946 148.037 144.946 148.546C144.946 148.922 144.846 149.253 144.647 149.54L142.749 152.302L145.071 155.245C145.303 155.538 145.418 155.88 145.418 156.273C145.418 156.792 145.236 157.238 144.871 157.612C144.506 157.985 144.064 158.171 143.545 158.171C142.975 158.171 142.541 157.987 142.243 157.616L139.4 154.067V156.024C139.4 156.582 139.303 157.016 139.109 157.325C138.756 157.889 138.242 158.171 137.567 158.171C136.954 158.171 136.478 157.964 136.141 157.55C135.826 157.168 135.669 156.662 135.669 156.032V148.779C135.669 148.181 135.828 147.69 136.149 147.302C136.487 146.894 136.951 146.689 137.543 146.689C138.106 146.689 138.576 146.894 138.952 147.302C139.162 147.529 139.295 147.759 139.35 147.991C139.383 148.135 139.4 148.402 139.4 148.795V150.602Z" fill="black"/>
<path fill-rule="evenodd" clip-rule="evenodd" d="M109.023 163.586H108.037C107.49 163.586 107.036 163.437 106.677 163.138C106.296 162.818 106.105 162.389 106.105 161.853C106.105 161.533 106.195 161.225 106.375 160.929C106.554 160.633 106.786 160.423 107.071 160.299C107.356 160.175 108.031 160.112 109.098 160.112H112.862C113.785 160.112 114.381 160.168 114.652 160.278C114.951 160.4 115.192 160.609 115.378 160.904C115.563 161.2 115.656 161.511 115.656 161.837C115.656 162.351 115.451 162.798 115.042 163.18C114.75 163.451 114.271 163.586 113.608 163.586H112.754V169.224C112.754 169.837 112.649 170.312 112.439 170.649C112.085 171.214 111.574 171.495 110.905 171.495C110.236 171.495 109.722 171.238 109.363 170.724C109.136 170.404 109.023 169.917 109.023 169.265V163.586Z" fill="black"/>
<path fill-rule="evenodd" clip-rule="evenodd" d="M118.424 169.962C118.247 170.382 118.065 170.694 117.878 170.898C117.502 171.308 117.045 171.512 116.51 171.512C115.852 171.512 115.341 171.247 114.975 170.716C114.761 170.401 114.652 170.047 114.652 169.655C114.652 169.329 114.73 169 114.884 168.668L118.424 161.133C118.767 160.398 119.339 160.03 120.141 160.03C120.953 160.03 121.536 160.409 121.89 161.165L125.464 168.759C125.607 169.064 125.678 169.365 125.678 169.663C125.678 170.105 125.535 170.498 125.247 170.84C124.872 171.288 124.391 171.512 123.805 171.512C123.324 171.512 122.924 171.362 122.603 171.064C122.365 170.843 122.127 170.475 121.89 169.962H118.424Z" fill="black"/>
<path fill-rule="evenodd" clip-rule="evenodd" d="M130.031 167.93H131.863C132.427 167.93 132.873 168.046 133.198 168.279C133.673 168.621 133.911 169.085 133.911 169.671C133.911 170.201 133.718 170.644 133.331 170.998C133.021 171.285 132.56 171.429 131.946 171.429H128.39C127.693 171.429 127.165 171.233 126.806 170.84C126.546 170.553 126.386 170.185 126.325 169.737C126.309 169.594 126.301 169.182 126.301 168.502V162.119C126.301 161.517 126.458 161.024 126.773 160.643C127.11 160.234 127.571 160.03 128.157 160.03C128.777 160.03 129.26 160.256 129.608 160.709C129.891 161.074 130.031 161.696 130.031 162.575V167.93Z" fill="black"/>
<path fill-rule="evenodd" clip-rule="evenodd" d="M138.272 163.943L140.378 160.892C140.776 160.317 141.29 160.03 141.92 160.03C142.433 160.03 142.879 160.212 143.255 160.576C143.63 160.942 143.819 161.379 143.819 161.886C143.819 162.263 143.719 162.594 143.52 162.881L141.621 165.642L143.943 168.586C144.175 168.878 144.291 169.221 144.291 169.613C144.291 170.133 144.109 170.579 143.743 170.952C143.379 171.326 142.937 171.512 142.417 171.512C141.848 171.512 141.414 171.327 141.115 170.957L138.272 167.408V169.365C138.272 169.923 138.175 170.357 137.982 170.666C137.628 171.23 137.114 171.512 136.44 171.512C135.826 171.512 135.351 171.305 135.014 170.89C134.699 170.509 134.542 170.003 134.542 169.373V162.119C134.542 161.522 134.701 161.03 135.022 160.643C135.359 160.234 135.823 160.03 136.416 160.03C136.978 160.03 137.448 160.234 137.824 160.643C138.034 160.87 138.167 161.099 138.222 161.332C138.256 161.475 138.272 161.743 138.272 162.135V163.943Z" fill="black"/>
<path fill-rule="evenodd" clip-rule="evenodd" d="M103.013 171.238C102.316 171.57 101.672 171.736 101.081 171.736C99.9867 171.736 99.0277 171.363 98.2045 170.616C97.3036 169.804 96.8528 168.803 96.8528 167.615C96.8528 167.14 96.9382 166.723 97.1097 166.363C97.2483 166.071 97.4968 165.716 97.8559 165.303C97.3918 164.666 97.1601 164.056 97.1601 163.47C97.1601 162.426 97.6018 161.533 98.4859 160.792C99.2762 160.135 100.171 159.806 101.172 159.806C101.913 159.806 102.618 159.996 103.286 160.377C103.772 160.654 104.179 161.011 104.505 161.448C104.875 161.945 105.06 162.445 105.06 162.948C105.06 163.439 104.881 163.859 104.521 164.204C104.162 164.549 103.734 164.722 103.236 164.722C102.579 164.722 102.04 164.393 101.62 163.735C101.498 163.542 101.352 163.445 101.181 163.445C100.854 163.445 100.692 163.611 100.692 163.943C100.692 164.158 100.869 164.346 101.221 164.507C101.73 164.733 101.984 165.087 101.984 165.567C101.984 165.849 101.905 166.12 101.744 166.381C101.567 166.656 101.346 166.825 101.081 166.885C100.927 166.919 100.835 166.938 100.808 166.943C100.631 167.016 100.542 167.184 100.542 167.45C100.542 167.792 100.71 167.963 101.048 167.963C101.357 167.963 101.722 167.64 102.142 166.994C102.313 166.733 102.418 166.577 102.457 166.521C102.579 166.36 102.708 166.231 102.847 166.131C103.201 165.883 103.573 165.758 103.965 165.758C104.43 165.758 104.863 165.927 105.263 166.264C105.664 166.601 105.865 166.999 105.865 167.458C105.865 167.718 105.762 168.077 105.558 168.536C105.967 169.006 106.171 169.456 106.171 169.887C106.171 170.39 105.984 170.824 105.608 171.189C105.232 171.553 104.792 171.736 104.289 171.736C103.919 171.736 103.494 171.57 103.013 171.238Z" fill="black"/>
</svg>
