<svg width="178" height="209" viewBox="0 0 178 209" fill="none" xmlns="http://www.w3.org/2000/svg">
<path fill-rule="evenodd" clip-rule="evenodd" d="M78.9034 118.219C82.8844 99.9484 72.6134 93.6544 72.6134 93.6544L80.1534 49.2604C80.1534 49.2604 82.7864 41.8824 84.0024 39.7484C84.0134 39.7264 84.0264 39.7054 84.0384 39.6844C85.1334 37.7074 84.1894 35.2254 82.1964 34.6874L77.2304 33.3444L76.6704 33.1934L69.9104 31.3654C67.9174 30.8274 65.8504 32.4944 65.8014 34.7544C65.8004 34.7784 65.8004 34.8024 65.8004 34.8274C65.7754 37.2834 64.3324 44.9834 64.3324 44.9834L48.4774 87.1294C48.4774 87.1294 36.4334 87.3914 30.6674 105.179C24.9004 122.967 7.2724 191.719 7.2724 191.719C7.2724 191.719 6.3854 194.997 11.4744 197.428L29.5224 202.307L30.9554 202.695L49.0024 207.573C54.6224 208.037 55.5084 204.759 55.5084 204.759C55.5084 204.759 74.9224 136.49 78.9034 118.219Z" fill="#74D08D"/>
<path fill-rule="evenodd" clip-rule="evenodd" d="M74.7306 36.9176C74.7306 36.9176 61.2346 87.5486 63.2226 94.3476C65.2106 101.147 66.5176 104.614 67.4716 110.089C68.4266 115.565 43.3296 205.828 43.3296 205.828C43.3296 205.828 52.6536 210.411 55.5086 204.76C58.3636 199.109 77.9986 122.147 77.9986 122.147C77.9986 122.147 83.3986 102.801 72.8946 94.0476L80.0096 48.7686L84.9816 37.6796L74.7306 36.9176Z" fill="#007B69"/>
<path fill-rule="evenodd" clip-rule="evenodd" d="M19.3095 181.161C17.8245 180.76 16.9455 179.23 17.3465 177.745L37.2895 103.973C37.6915 102.488 39.2215 101.609 40.7065 102.011C42.1925 102.412 43.0705 103.942 42.6685 105.428L22.7265 179.199C22.3255 180.684 20.7945 181.563 19.3095 181.161Z" fill="white"/>
<path fill-rule="evenodd" clip-rule="evenodd" d="M16.8986 189.669C15.4136 189.268 14.5346 187.737 14.9356 186.252L15.0106 185.975C15.4126 184.489 16.9416 183.61 18.4266 184.013C19.9136 184.414 20.7916 185.943 20.3896 187.429L20.3146 187.706C19.9136 189.191 18.3836 190.07 16.8986 189.669Z" fill="white"/>
<path fill-rule="evenodd" clip-rule="evenodd" d="M71.6427 148.035L62.1377 145.466C64.0057 137.259 59.0767 128.971 50.8777 126.754C42.6797 124.538 34.2467 129.214 31.7247 137.243L22.2197 134.674L16.0957 157.326L25.6007 159.895C23.7337 168.102 28.6627 176.39 36.8607 178.606C45.0597 180.823 53.4937 176.147 56.0147 168.117L65.5187 170.686L71.6427 148.035Z" fill="#EF9500"/>
<path fill-rule="evenodd" clip-rule="evenodd" d="M70.9785 149.071C70.8735 149.071 70.7665 149.057 70.6605 149.028L61.8215 146.638C61.1915 146.468 60.8085 145.832 60.9535 145.196C62.6905 137.557 58.1255 129.972 50.5615 127.928C42.9965 125.884 35.2315 130.134 32.8835 137.608C32.6885 138.23 32.0355 138.585 31.4075 138.417L22.0695 135.892C21.4205 135.717 21.0375 135.05 21.2125 134.402C21.3875 133.754 22.0555 133.37 22.7035 133.545L30.9525 135.775C34.0825 127.743 42.7455 123.296 51.1955 125.581C59.6455 127.865 64.8875 136.071 63.5445 144.587L71.2945 146.681C71.9425 146.856 72.3265 147.524 72.1505 148.172C72.0045 148.714 71.5135 149.071 70.9785 149.071Z" fill="#223663"/>
<path fill-rule="evenodd" clip-rule="evenodd" d="M41.0186 180.378C39.5406 180.378 38.0396 180.185 36.5436 179.78C28.0926 177.496 22.8506 169.289 24.1946 160.774L16.1116 158.59C15.4636 158.415 15.0806 157.747 15.2546 157.1C15.4306 156.451 16.0996 156.068 16.7466 156.243L25.9176 158.722C26.5476 158.893 26.9306 159.529 26.7866 160.166C25.0476 167.804 29.6126 175.389 37.1776 177.434C44.7426 179.478 52.5076 175.227 54.8546 167.754C55.0496 167.131 55.7026 166.774 56.3316 166.944L65.1706 169.334C65.8196 169.509 66.2026 170.177 66.0276 170.824C65.8516 171.473 65.1846 171.856 64.5366 171.681L56.7866 169.586C54.2096 176.195 47.8866 180.378 41.0186 180.378Z" fill="#223663"/>
<path fill-rule="evenodd" clip-rule="evenodd" d="M50.0635 208.835C49.6965 208.835 49.3095 208.819 48.9025 208.785C48.8285 208.779 48.7555 208.767 48.6845 208.747L11.1585 198.603C11.0865 198.583 11.0175 198.558 10.9515 198.526C5.01649 195.69 6.05148 191.576 6.09848 191.402C6.12648 191.298 9.00348 180.517 10.1465 176.093C10.3145 175.443 10.9805 175.051 11.6275 175.221C12.2775 175.389 12.6675 176.052 12.5005 176.702C11.3545 181.134 8.47549 191.925 8.44649 192.033C8.43148 192.106 7.98549 194.373 11.9015 196.285L49.2095 206.371C53.6055 206.688 54.3295 204.465 54.3345 204.442C54.4545 204.016 66.0705 162.402 72.6255 138.336C72.8025 137.689 73.4675 137.306 74.1185 137.483C74.7655 137.66 75.1475 138.328 74.9715 138.976C68.4145 163.049 56.7955 204.669 56.6795 205.087C56.6375 205.24 55.5985 208.835 50.0635 208.835Z" fill="#223663"/>
<path fill-rule="evenodd" clip-rule="evenodd" d="M13.4454 169.133C13.3434 169.133 13.2404 169.119 13.1364 169.093C12.4874 168.922 12.0984 168.258 12.2684 167.609C18.2024 144.917 26.0104 115.601 29.5104 104.804C34.6564 88.9334 44.6274 86.3964 47.6064 85.9904L53.8834 69.3074C54.1194 68.6794 54.8194 68.3614 55.4484 68.5984C56.0774 68.8344 56.3944 69.5354 56.1584 70.1634L49.6154 87.5574C49.4404 88.0224 49.0004 88.3344 48.5044 88.3444C48.0504 88.3594 37.2264 88.8854 31.8234 105.554C28.3414 116.296 20.5464 145.564 14.6204 168.224C14.4774 168.771 13.9844 169.133 13.4454 169.133Z" fill="#223663"/>
<path fill-rule="evenodd" clip-rule="evenodd" d="M75.9003 131.755C75.8003 131.755 75.6983 131.742 75.5963 131.716C74.9463 131.549 74.5553 130.886 74.7223 130.236C75.5553 127 76.2593 124.183 76.8163 121.862C77.1693 120.391 77.4713 119.081 77.7153 117.961C81.4463 100.84 72.3623 94.931 71.9733 94.688C71.5553 94.427 71.3323 93.937 71.4153 93.451L78.9553 49.057C78.9663 48.987 78.9853 48.919 79.0083 48.852C79.1173 48.547 81.6923 41.348 82.9453 39.147C83.3373 38.441 83.3833 37.65 83.0993 36.979C82.8603 36.413 82.4163 36.006 81.8793 35.861L69.5923 32.539C69.0563 32.394 68.4663 32.522 67.9753 32.89C67.3913 33.327 67.0333 34.034 67.0163 34.78C66.9903 37.373 65.5873 44.889 65.5263 45.208C65.5133 45.277 65.4943 45.345 65.4693 45.411L60.0913 59.708C59.8553 60.336 59.1543 60.653 58.5263 60.418C57.8973 60.181 57.5803 59.48 57.8163 58.852L63.1563 44.656C63.3263 43.736 64.5623 36.987 64.5853 34.815L64.5873 34.723C64.6193 33.239 65.3403 31.825 66.5183 30.943C67.6123 30.124 68.9643 29.851 70.2273 30.192L82.5133 33.514C83.7763 33.856 84.8063 34.773 85.3383 36.031C85.9123 37.386 85.8223 38.972 85.1003 40.274L85.0523 40.359C83.9823 42.238 81.6503 48.69 81.3343 49.57L73.9383 93.109C76.3083 94.961 83.6433 102.176 80.0903 118.478C79.8433 119.613 79.5373 120.939 79.1793 122.43C78.6203 124.763 77.9133 127.593 77.0773 130.842C76.9353 131.391 76.4423 131.755 75.9003 131.755Z" fill="#223663"/>
<path fill-rule="evenodd" clip-rule="evenodd" d="M83.8428 40.191L65.2488 35.164C63.3418 34.649 62.2138 32.685 62.7298 30.778C63.2448 28.871 65.2088 27.743 67.1158 28.258L85.7098 33.285C87.6158 33.8 88.7448 35.764 88.2298 37.671C87.7138 39.578 85.7498 40.706 83.8428 40.191Z" fill="#223663"/>
<path fill-rule="evenodd" clip-rule="evenodd" d="M80.1543 50.4762C80.0493 50.4762 79.9423 50.4622 79.8373 50.4342L64.0143 46.1572C63.3673 45.9822 62.9833 45.3142 63.1583 44.6662C63.3343 44.0182 64.0023 43.6362 64.6493 43.8102L80.4703 48.0872C81.1193 48.2622 81.5023 48.9302 81.3273 49.5782C81.1803 50.1202 80.6903 50.4762 80.1543 50.4762Z" fill="#223663"/>
<path fill-rule="evenodd" clip-rule="evenodd" d="M152.278 163.621L140.878 128.719C140.878 128.719 149.817 119.323 157.812 141.56C165.218 162.161 152.278 163.621 152.278 163.621ZM98.8604 195.839C99.2104 197.026 100.03 198.02 101.119 198.554C109.373 202.593 120.613 200.625 132.882 196.338C150.228 190.275 153.65 184.048 155.548 181.261C156.306 180.147 156.527 178.73 156.157 177.398L154.664 172.026C154.664 172.026 160.784 170.96 166.341 163.358C171.896 155.757 163.049 130.342 156.309 122.277C149.57 114.212 136.511 120.892 136.511 120.892L130.082 102.778C105.661 97.6297 75.2664 120.63 75.2664 120.63L98.8604 195.839Z" fill="white"/>
<path fill-rule="evenodd" clip-rule="evenodd" d="M128.69 112.873C109 108.983 84.2854 127.343 84.2854 127.343L102.816 186.514C103.09 187.449 103.746 188.228 104.622 188.64C111.261 191.77 120.354 190.138 130.295 186.669C144.351 181.764 145.96 177.224 147.512 175.012C148.133 174.128 148.321 173.009 148.032 171.961L128.69 112.873Z" fill="#F6B004"/>
<path fill-rule="evenodd" clip-rule="evenodd" d="M138.689 144.551C138.211 144.551 137.767 144.247 137.611 143.769L127.823 113.866C110.702 110.939 89.5946 124.997 85.6216 127.783L90.0536 141.42C90.2476 142.017 89.9216 142.656 89.3256 142.851C88.7286 143.042 88.0886 142.718 87.8956 142.122L83.2066 127.694C83.0546 127.23 83.2166 126.722 83.6086 126.432C83.8646 126.242 89.9756 121.728 98.6176 117.624C110.308 112.072 120.501 110.097 128.911 111.759C129.314 111.839 129.642 112.13 129.77 112.52L139.768 143.063C139.962 143.658 139.638 144.299 139.042 144.494C138.924 144.532 138.805 144.551 138.689 144.551ZM147.512 176.147C147.288 176.147 147.06 176.08 146.863 175.942C146.349 175.581 146.225 174.874 146.585 174.362C147.011 173.754 147.14 172.989 146.939 172.263L141.245 154.872C141.05 154.278 141.375 153.637 141.97 153.442C142.569 153.246 143.208 153.572 143.402 154.167L149.111 171.608C149.508 173.04 149.259 174.5 148.443 175.664C148.222 175.979 147.871 176.147 147.512 176.147ZM112.902 191.438C109.532 191.438 106.64 190.845 104.139 189.667C102.974 189.117 102.095 188.085 101.728 186.834L90.0976 149.402C89.9126 148.803 90.2466 148.167 90.8446 147.981C91.4436 147.797 92.0786 148.129 92.2656 148.728L103.901 186.178C104.09 186.823 104.529 187.342 105.107 187.614C110.632 190.219 118.519 189.577 129.923 185.597C133.98 184.182 137.334 182.669 139.891 181.102C140.424 180.773 141.124 180.942 141.451 181.476C141.779 182.01 141.611 182.708 141.077 183.035C138.381 184.688 134.88 186.271 130.67 187.74C123.59 190.211 117.752 191.438 112.902 191.438Z" fill="#223663"/>
<path fill-rule="evenodd" clip-rule="evenodd" d="M112.15 183.308C111.462 183.308 110.823 182.865 110.605 182.173L94.7393 131.579C94.4713 130.725 94.9463 129.817 95.7993 129.549C96.6523 129.282 97.5613 129.756 97.8303 130.61L113.696 181.204C113.963 182.057 113.489 182.966 112.635 183.234C112.474 183.285 112.31 183.308 112.15 183.308Z" fill="#EF9500"/>
<path fill-rule="evenodd" clip-rule="evenodd" d="M124.463 179.226C123.775 179.226 123.136 178.784 122.918 178.091L107.052 127.497C106.784 126.643 107.259 125.735 108.112 125.467C108.965 125.199 109.875 125.674 110.143 126.528L126.009 177.122C126.276 177.975 125.802 178.884 124.948 179.152C124.787 179.203 124.623 179.226 124.463 179.226Z" fill="#EF9500"/>
<path fill-rule="evenodd" clip-rule="evenodd" d="M136.774 175.145C136.086 175.145 135.447 174.702 135.23 174.009L119.363 123.415C119.096 122.562 119.57 121.653 120.424 121.385C121.277 121.117 122.186 121.592 122.454 122.446L138.32 173.041C138.587 173.893 138.113 174.802 137.259 175.07C137.098 175.121 136.935 175.145 136.774 175.145Z" fill="#EF9500"/>
<path fill-rule="evenodd" clip-rule="evenodd" d="M142.21 129.086L153.048 162.267C154.172 161.919 156.103 161.031 157.445 158.846C159.657 155.25 159.41 149.407 156.729 141.951C152.943 131.422 149.128 128.56 146.594 128.012C144.582 127.579 142.982 128.501 142.21 129.086ZM152.277 164.773C151.785 164.773 151.34 164.457 151.184 163.978L139.784 129.076C139.652 128.674 139.752 128.232 140.044 127.925C140.162 127.801 142.981 124.895 147.042 125.753C151.572 126.707 155.561 131.895 158.897 141.171C161.875 149.458 162.037 155.826 159.378 160.1C156.812 164.224 152.586 164.745 152.407 164.765C152.363 164.77 152.32 164.773 152.277 164.773ZM76.6139 121.081L99.9599 195.494C99.9619 195.501 99.9639 195.506 99.9659 195.513C100.226 196.399 100.831 197.129 101.626 197.519C108.557 200.911 118.367 200.19 132.502 195.251C148.582 189.63 152.431 183.859 154.28 181.085L154.597 180.613C155.165 179.778 155.329 178.719 155.048 177.708L153.555 172.335C153.468 172.021 153.517 171.685 153.69 171.411C153.864 171.136 154.147 170.948 154.467 170.891C154.519 170.882 160.232 169.764 165.411 162.678C167.629 159.644 167.411 152.403 164.829 143.306C162.541 135.245 158.674 126.901 155.426 123.015C149.356 115.751 138.306 121.472 138.194 121.53C137.899 121.687 137.55 121.707 137.238 121.586C136.927 121.464 136.683 121.213 136.571 120.898L130.36 103.399C108.745 99.3151 81.2149 117.843 76.6139 121.081ZM111.689 201.906C107.42 201.906 103.767 201.13 100.613 199.587C99.2429 198.917 98.2039 197.673 97.7589 196.174L74.1679 120.975C74.0209 120.506 74.1869 119.997 74.5809 119.705C74.6599 119.646 82.6819 113.733 93.5939 108.544C108.343 101.529 121.083 99.0831 131.464 101.272C131.856 101.354 132.178 101.635 132.312 102.013L138.322 118.946C141.675 117.545 151.257 114.435 157.193 121.539C164.049 129.742 173.401 155.65 167.271 164.038C162.934 169.971 158.251 172.114 156.083 172.831L157.267 177.09C157.73 178.755 157.451 180.512 156.5 181.909L156.196 182.362C154.208 185.344 150.07 191.549 133.262 197.424C124.694 200.419 117.602 201.906 111.689 201.906Z" fill="#223663"/>
<path fill-rule="evenodd" clip-rule="evenodd" d="M110.466 176.309C109.005 176.793 107.429 176.002 106.945 174.541L92.6509 130.333C92.1659 128.873 92.9579 127.296 94.4189 126.812C95.8789 126.328 97.4559 127.12 97.9399 128.58L112.234 172.788C112.718 174.248 111.926 175.825 110.466 176.309Z" fill="white"/>
<path fill-rule="evenodd" clip-rule="evenodd" d="M113.146 184.736C111.686 185.22 110.109 184.428 109.625 182.968L109.535 182.696C109.05 181.235 109.841 179.659 111.302 179.174C112.763 178.69 114.339 179.481 114.824 180.942L114.914 181.215C115.398 182.675 114.607 184.252 113.146 184.736Z" fill="white"/>
<path fill-rule="evenodd" clip-rule="evenodd" d="M119.443 90.7062C119.337 90.7412 119.238 90.7882 119.132 90.8252C113.419 84.2582 104.124 81.3802 95.3325 84.2612C84.8115 87.7082 78.5955 98.2272 80.2145 108.82C78.9275 108.797 77.6165 108.973 76.3235 109.396C70.1235 111.428 66.7435 118.102 68.7745 124.303C70.8065 130.503 77.4805 133.883 83.6805 131.852C84.9025 131.451 86.0085 130.866 86.9915 130.144C89.0065 130.774 91.2045 130.868 93.3755 130.321L97.8165 143.875C98.7755 146.804 101.927 148.401 104.856 147.441C107.785 146.481 109.381 143.33 108.422 140.401L104.262 127.705C105.919 127.556 107.584 127.226 109.232 126.685C113.468 125.297 117.004 122.758 119.615 119.533C122.531 120.454 125.747 120.517 128.875 119.492C136.824 116.887 141.156 108.331 138.551 100.383C135.947 92.4342 127.392 88.1022 119.443 90.7062Z" fill="white"/>
<path fill-rule="evenodd" clip-rule="evenodd" d="M109.713 162.452L109.11 162.649C106.349 163.555 103.375 162.049 102.47 159.286C101.566 156.524 103.07 153.551 105.833 152.646L106.436 152.448C109.198 151.544 112.171 153.049 113.076 155.811C113.982 158.573 112.476 161.547 109.713 162.452Z" fill="white"/>
<path fill-rule="evenodd" clip-rule="evenodd" d="M138.553 101.535C138.068 101.535 137.617 101.227 137.458 100.742C135.056 93.4088 127.134 89.3978 119.802 91.8008C119.772 91.8098 119.741 91.8238 119.711 91.8358C119.646 91.8628 119.58 91.8888 119.513 91.9128C119.067 92.0668 118.574 91.9368 118.264 91.5808C115.19 88.0478 110.96 85.6018 106.355 84.6948C105.731 84.5718 105.325 83.9668 105.449 83.3428C105.571 82.7178 106.175 82.3138 106.801 82.4348C111.649 83.3898 116.121 85.8838 119.479 89.4888C127.907 86.9598 136.892 91.6168 139.647 100.025C139.845 100.629 139.515 101.279 138.911 101.477C138.792 101.516 138.671 101.535 138.553 101.535Z" fill="#223663"/>
<path fill-rule="evenodd" clip-rule="evenodd" d="M103.124 148.871C100.291 148.871 97.6501 147.068 96.7221 144.234L92.6021 131.658C90.8021 131.954 88.9641 131.869 87.2011 131.403C86.2171 132.062 85.1551 132.58 84.0391 132.946C79.9401 134.289 75.4551 133.51 72.0431 130.862C71.5411 130.472 71.4491 129.749 71.8401 129.246C72.2281 128.745 72.9521 128.652 73.4551 129.043C76.2621 131.221 79.9501 131.862 83.3221 130.758C84.3871 130.409 85.3921 129.891 86.3111 129.217C86.6051 129 86.9861 128.937 87.3351 129.046C89.2001 129.629 91.1911 129.684 93.0941 129.205C93.6801 129.056 94.2801 129.389 94.4701 129.963L98.9101 143.517C99.6711 145.838 102.176 147.107 104.498 146.348C106.818 145.587 108.088 143.08 107.327 140.76L103.168 128.064C103.059 127.73 103.107 127.366 103.301 127.072C103.494 126.779 103.81 126.59 104.159 126.559C105.771 126.413 107.357 126.088 108.874 125.592C112.752 124.321 116.156 121.975 118.72 118.809C119.018 118.44 119.509 118.292 119.962 118.435C122.773 119.322 125.731 119.31 128.517 118.398C133.967 116.612 137.833 111.566 138.138 105.841C138.172 105.205 138.714 104.718 139.349 104.752C139.984 104.786 140.472 105.329 140.437 105.963C140.082 112.63 135.58 118.507 129.233 120.586C126.234 121.569 123.064 121.657 120.016 120.848C117.235 124.062 113.646 126.451 109.591 127.78C108.359 128.183 107.088 128.485 105.794 128.68L109.517 140.043C110.672 143.569 108.742 147.379 105.215 148.536C104.521 148.763 103.816 148.871 103.124 148.871Z" fill="#223663"/>
<path fill-rule="evenodd" clip-rule="evenodd" d="M68.7746 125.455C68.2906 125.455 67.8396 125.147 67.6806 124.662C65.4546 117.868 69.1706 110.529 75.9646 108.303C76.9176 107.991 77.9056 107.793 78.9166 107.71C77.8476 96.8087 84.4356 86.6197 94.9726 83.1667C95.5786 82.9667 96.2276 83.2987 96.4256 83.9027C96.6246 84.5067 96.2946 85.1577 95.6906 85.3557C85.8146 88.5917 79.7846 98.3867 81.3526 108.647C81.4046 108.982 81.3046 109.324 81.0816 109.579C80.8576 109.834 80.5256 109.987 80.1936 109.972C78.9816 109.95 77.7996 110.124 76.6826 110.491C71.0946 112.322 68.0386 118.357 69.8696 123.945C70.0676 124.549 69.7376 125.199 69.1336 125.397C69.0146 125.436 68.8936 125.455 68.7746 125.455Z" fill="#223663"/>
<path fill-rule="evenodd" clip-rule="evenodd" d="M108.072 153.337C107.647 153.337 107.218 153.403 106.794 153.542L106.191 153.739C105.147 154.082 104.3 154.81 103.803 155.789C103.307 156.77 103.221 157.883 103.564 158.927C103.906 159.971 104.634 160.818 105.614 161.316C106.593 161.811 107.708 161.897 108.752 161.554L109.354 161.357C111.51 160.65 112.687 158.323 111.981 156.169C111.414 154.439 109.801 153.337 108.072 153.337ZM107.465 164.065C106.471 164.065 105.485 163.831 104.574 163.369C103.045 162.596 101.909 161.272 101.376 159.644C100.842 158.016 100.974 156.277 101.749 154.749C102.523 153.22 103.846 152.084 105.474 151.551L106.077 151.354C109.436 150.254 113.068 152.091 114.17 155.452C115.271 158.813 113.432 162.444 110.071 163.545L109.468 163.743C108.811 163.958 108.136 164.065 107.465 164.065Z" fill="#223663"/>
<path fill-rule="evenodd" clip-rule="evenodd" d="M160.979 46.2882C160.385 46.2882 159.902 46.7712 159.902 47.3652C159.902 47.9592 160.385 48.4432 160.979 48.4432C161.573 48.4432 162.056 47.9592 162.056 47.3652C162.056 46.7712 161.573 46.2882 160.979 46.2882ZM160.979 50.0732C159.486 50.0732 158.272 48.8582 158.272 47.3652C158.272 45.8722 159.486 44.6582 160.979 44.6582C162.472 44.6582 163.686 45.8722 163.686 47.3652C163.686 48.8582 162.472 50.0732 160.979 50.0732Z" fill="#223663"/>
<path fill-rule="evenodd" clip-rule="evenodd" d="M173.572 104.865C173.122 104.865 172.758 104.5 172.758 104.05V96.8614C172.758 96.4114 173.122 96.0464 173.572 96.0464C174.022 96.0464 174.387 96.4114 174.387 96.8614V104.05C174.387 104.5 174.022 104.865 173.572 104.865Z" fill="#223663"/>
<path fill-rule="evenodd" clip-rule="evenodd" d="M177.167 101.271H169.978C169.527 101.271 169.163 100.906 169.163 100.456C169.163 100.006 169.527 99.6406 169.978 99.6406H177.167C177.617 99.6406 177.981 100.006 177.981 100.456C177.981 100.906 177.617 101.271 177.167 101.271Z" fill="#223663"/>
<path fill-rule="evenodd" clip-rule="evenodd" d="M7.56156 115.214C7.11156 115.214 6.74756 114.849 6.74756 114.399V107.209C6.74756 106.759 7.11156 106.394 7.56156 106.394C8.01156 106.394 8.37656 106.759 8.37656 107.209V114.399C8.37656 114.849 8.01156 115.214 7.56156 115.214Z" fill="#223663"/>
<path fill-rule="evenodd" clip-rule="evenodd" d="M11.1563 111.619H3.96734C3.51634 111.619 3.15234 111.254 3.15234 110.804C3.15234 110.354 3.51634 109.989 3.96734 109.989H11.1563C11.6063 109.989 11.9713 110.354 11.9713 110.804C11.9713 111.254 11.6063 111.619 11.1563 111.619Z" fill="#223663"/>
<path fill-rule="evenodd" clip-rule="evenodd" d="M3.50778 34.9474C2.91378 34.9474 2.43078 35.4304 2.43078 36.0244C2.43078 36.6184 2.91378 37.1024 3.50778 37.1024C4.10178 37.1024 4.58478 36.6184 4.58478 36.0244C4.58478 35.4304 4.10178 34.9474 3.50778 34.9474ZM3.50778 38.7324C2.01478 38.7324 0.800781 37.5174 0.800781 36.0244C0.800781 34.5314 2.01478 33.3174 3.50778 33.3174C5.00078 33.3174 6.21578 34.5314 6.21578 36.0244C6.21578 37.5174 5.00078 38.7324 3.50778 38.7324Z" fill="#223663"/>
<path fill-rule="evenodd" clip-rule="evenodd" d="M117.775 60.6774C117.325 60.6774 116.96 60.3124 116.96 59.8624V52.6734C116.96 52.2234 117.325 51.8584 117.775 51.8584C118.225 51.8584 118.589 52.2234 118.589 52.6734V59.8624C118.589 60.3124 118.225 60.6774 117.775 60.6774Z" fill="#223663"/>
<path fill-rule="evenodd" clip-rule="evenodd" d="M121.369 57.0826H114.181C113.73 57.0826 113.365 56.7176 113.365 56.2676C113.365 55.8176 113.73 55.4526 114.181 55.4526H121.369C121.819 55.4526 122.184 55.8176 122.184 56.2676C122.184 56.7176 121.819 57.0826 121.369 57.0826Z" fill="#223663"/>
<path fill-rule="evenodd" clip-rule="evenodd" d="M34.6455 70.1339C34.0505 70.1339 33.5675 70.6169 33.5675 71.2109C33.5675 71.8049 34.0505 72.2889 34.6455 72.2889C35.2395 72.2889 35.7225 71.8049 35.7225 71.2109C35.7225 70.6169 35.2395 70.1339 34.6455 70.1339ZM34.6455 73.9189C33.1525 73.9189 31.9375 72.7039 31.9375 71.2109C31.9375 69.7179 33.1525 68.5039 34.6455 68.5039C36.1375 68.5039 37.3525 69.7179 37.3525 71.2109C37.3525 72.7039 36.1375 73.9189 34.6455 73.9189Z" fill="#223663"/>
<path fill-rule="evenodd" clip-rule="evenodd" d="M49.8448 14.882C49.3948 14.882 49.0298 14.517 49.0298 14.067V6.87799C49.0298 6.42699 49.3948 6.06299 49.8448 6.06299C50.2948 6.06299 50.6588 6.42699 50.6588 6.87799V14.067C50.6588 14.517 50.2948 14.882 49.8448 14.882Z" fill="#223663"/>
<path fill-rule="evenodd" clip-rule="evenodd" d="M53.4395 11.2872H46.2505C45.7995 11.2872 45.4355 10.9222 45.4355 10.4722C45.4355 10.0222 45.7995 9.6572 46.2505 9.6572H53.4395C53.8895 9.6572 54.2545 10.0222 54.2545 10.4722C54.2545 10.9222 53.8895 11.2872 53.4395 11.2872Z" fill="#223663"/>
<path fill-rule="evenodd" clip-rule="evenodd" d="M113.45 1.63049C112.856 1.63049 112.373 2.11349 112.373 2.70749C112.373 3.30149 112.856 3.78549 113.45 3.78549C114.045 3.78549 114.528 3.30149 114.528 2.70749C114.528 2.11349 114.045 1.63049 113.45 1.63049ZM113.45 5.41549C111.957 5.41549 110.743 4.20049 110.743 2.70749C110.743 1.21449 111.957 0.000488281 113.45 0.000488281C114.943 0.000488281 116.158 1.21449 116.158 2.70749C116.158 4.20049 114.943 5.41549 113.45 5.41549Z" fill="#223663"/>
</svg>
